<svg width="16" height="16" viewBox="0 0 16 16" fill="none" xmlns="http://www.w3.org/2000/svg">
<path d="M12.8538 7.35378C12.8073 7.40027 12.7522 7.43714 12.6915 7.46231C12.6308 7.48747 12.5657 7.50042 12.5 7.50042C12.4343 7.50042 12.3693 7.48747 12.3086 7.46231C12.2479 7.43714 12.1927 7.40027 12.1463 7.35378L8.50003 3.7069V13.5C8.50003 13.6326 8.44736 13.7598 8.35359 13.8536C8.25982 13.9473 8.13264 14 8.00003 14C7.86743 14 7.74025 13.9473 7.64648 13.8536C7.55271 13.7598 7.50003 13.6326 7.50003 13.5V3.7069L3.85378 7.35378C3.75996 7.4476 3.63272 7.50031 3.50003 7.50031C3.36735 7.50031 3.2401 7.4476 3.14628 7.35378C3.05246 7.25996 2.99976 7.13271 2.99976 7.00003C2.99976 6.86735 3.05246 6.7401 3.14628 6.64628L7.64628 2.14628C7.69272 2.09979 7.74786 2.06291 7.80856 2.03775C7.86926 2.01259 7.93433 1.99963 8.00003 1.99963C8.06574 1.99963 8.1308 2.01259 8.1915 2.03775C8.2522 2.06291 8.30735 2.09979 8.35378 2.14628L12.8538 6.64628C12.9003 6.69271 12.9372 6.74786 12.9623 6.80856C12.9875 6.86926 13.0004 6.93432 13.0004 7.00003C13.0004 7.06573 12.9875 7.1308 12.9623 7.1915C12.9372 7.2522 12.9003 7.30734 12.8538 7.35378Z" fill="#0F0F0F"/>
</svg>
